<svg xmlns="http://www.w3.org/2000/svg" viewBox="0 0 512 512">
<defs>
    <linearGradient id="sb" x1="0" y1="0" x2="0.6" y2="1"><stop offset="0" stop-color="#16958a"/><stop offset="1" stop-color="#0a5751"/></linearGradient>
    <radialGradient id="sg" cx="0.22" cy="0.12" r="0.75"><stop offset="0" stop-color="#2dd4bf" stop-opacity=".42"/><stop offset="1" stop-color="#2dd4bf" stop-opacity="0"/></radialGradient>
  </defs>
  <rect width="512" height="512" rx="96" fill="url(#sb)"/>
  <rect width="512" height="512" rx="96" fill="url(#sg)"/><g transform="translate(0.38341695228629646 -19.406856435865052) scale(1.0100947978863832)"><defs><mask id="g2" maskUnits="userSpaceOnUse" x="-64" y="-64" width="640" height="640">
      <g transform="rotate(-14 256 256) translate(0 -14)"><path d="M256 78 C356 118 404 214 382 300 C362 378 300 420 256 432 C212 420 150 378 130 300 C108 214 156 118 256 78 Z" fill="#fff"/>
      <path d="M256 404 C256 440 254 462 244 482" fill="none" stroke="#fff" stroke-width="32" stroke-linecap="round"/><g fill="none" stroke="#000" stroke-width="30" stroke-linecap="round" stroke-linejoin="round">
      <path d="M256 404 V196"/><path d="M256 352 C236 330 214 316 188 305"/><path d="M256 282 C276 262 298 249 324 240"/>
    </g>
    <g fill="#000"><circle cx="256" cy="178" r="35"/><circle cx="186" cy="304" r="31"/><circle cx="326" cy="239" r="31"/></g></g>
    </mask></defs>
    <g mask="url(#g2)"><g transform="rotate(-14 256 256) translate(0 -14)">
      <rect x="-64" y="-64" width="640" height="640" fill="#ffffff"/><rect x="256" y="-64" width="320" height="640" fill="#d6f3ee"/>
    </g></g></g>
</svg>
